G04 MADE WITH FRITZING*
G04 WWW.FRITZING.ORG*
G04 SINGLE SIDED*
G04 HOLES NOT PLATED*
G04 CONTOUR ON CENTER OF CONTOUR VECTOR*
%ASAXBY*%
%FSLAX23Y23*%
%MOIN*%
%OFA0B0*%
%SFA1.0B1.0*%
%ADD10C,0.077778*%
%ADD11C,0.064000*%
%ADD12C,0.059370*%
%ADD13C,0.087268*%
%ADD14C,0.087253*%
%ADD15C,0.062992*%
%ADD16R,0.064000X0.064000*%
%ADD17R,0.062992X0.062992*%
%ADD18C,0.024000*%
%ADD19C,0.012000*%
%ADD20R,0.001000X0.001000*%
%LNCOPPER0*%
G90*
G70*
G54D10*
X1000Y172D03*
X1100Y172D03*
X1200Y172D03*
X1300Y172D03*
X1400Y172D03*
X1500Y172D03*
X1600Y172D03*
X1700Y172D03*
X1700Y1072D03*
X1600Y1072D03*
X1500Y1072D03*
X1400Y1072D03*
X1300Y1072D03*
X1200Y1072D03*
X1100Y1072D03*
X1000Y1072D03*
G54D11*
X240Y1182D03*
X240Y1082D03*
X240Y982D03*
X240Y882D03*
X240Y782D03*
X240Y682D03*
X240Y582D03*
X240Y482D03*
G54D12*
X1500Y1372D03*
X1500Y1572D03*
G54D13*
X2400Y1052D03*
G54D14*
X2400Y1248D03*
G54D13*
X2400Y1452D03*
G54D14*
X2400Y1648D03*
G54D15*
X1200Y1472D03*
X1200Y1570D03*
X900Y1472D03*
X900Y1570D03*
G54D16*
X240Y1182D03*
G54D17*
X1200Y1472D03*
X900Y1472D03*
G54D18*
X1521Y711D02*
X270Y1171D01*
D02*
X1596Y200D02*
X1521Y711D01*
D02*
X1700Y142D02*
X1700Y61D01*
D02*
X1700Y61D02*
X930Y63D01*
D02*
X741Y341D02*
X270Y473D01*
D02*
X930Y63D02*
X741Y341D01*
D02*
X1182Y194D02*
X1041Y372D01*
D02*
X1041Y372D02*
X271Y574D01*
D02*
X1495Y200D02*
X1431Y562D01*
D02*
X1431Y562D02*
X270Y971D01*
D02*
X1397Y201D02*
X1361Y482D01*
D02*
X1361Y482D02*
X270Y871D01*
D02*
X919Y1453D02*
X1101Y1270D01*
D02*
X1101Y1270D02*
X1187Y1098D01*
D02*
X2370Y1037D02*
X1770Y741D01*
D02*
X1200Y911D02*
X1200Y1042D01*
D02*
X1770Y741D02*
X1200Y911D01*
D02*
X1207Y1446D02*
X1293Y1100D01*
D02*
X2371Y1232D02*
X1770Y882D01*
D02*
X1300Y962D02*
X1301Y1071D01*
D02*
X1301Y1071D02*
X1313Y1045D01*
D02*
X1770Y882D02*
X1300Y962D01*
D02*
X927Y1570D02*
X1174Y1570D01*
D02*
X1470Y1571D02*
X1227Y1570D01*
D02*
X1700Y1571D02*
X1531Y1572D01*
D02*
X1606Y1100D02*
X1700Y1571D01*
D02*
X2367Y1645D02*
X1700Y1571D01*
D02*
X1700Y1571D02*
X1606Y1100D01*
D02*
X209Y682D02*
X91Y681D01*
D02*
X91Y681D02*
X70Y1591D01*
D02*
X70Y1591D02*
X874Y1571D01*
D02*
X2371Y1436D02*
X1726Y1086D01*
D02*
X1491Y1343D02*
X1410Y1099D01*
G54D19*
D02*
X130Y1091D02*
X215Y1084D01*
D02*
X390Y702D02*
X151Y751D01*
D02*
X151Y751D02*
X130Y1091D01*
D02*
X1181Y382D02*
X390Y702D01*
D02*
X1289Y192D02*
X1181Y382D01*
G54D20*
X1471Y1602D02*
X1529Y1602D01*
X1471Y1601D02*
X1529Y1601D01*
X1471Y1600D02*
X1529Y1600D01*
X1471Y1599D02*
X1529Y1599D01*
X1471Y1598D02*
X1529Y1598D01*
X1471Y1597D02*
X1529Y1597D01*
X1471Y1596D02*
X1529Y1596D01*
X1471Y1595D02*
X1529Y1595D01*
X1471Y1594D02*
X1529Y1594D01*
X1471Y1593D02*
X1529Y1593D01*
X1471Y1592D02*
X1497Y1592D01*
X1503Y1592D02*
X1529Y1592D01*
X1471Y1591D02*
X1493Y1591D01*
X1507Y1591D02*
X1529Y1591D01*
X1471Y1590D02*
X1490Y1590D01*
X1509Y1590D02*
X1529Y1590D01*
X1471Y1589D02*
X1489Y1589D01*
X1511Y1589D02*
X1529Y1589D01*
X1471Y1588D02*
X1487Y1588D01*
X1512Y1588D02*
X1529Y1588D01*
X1471Y1587D02*
X1486Y1587D01*
X1514Y1587D02*
X1529Y1587D01*
X1471Y1586D02*
X1485Y1586D01*
X1515Y1586D02*
X1529Y1586D01*
X1471Y1585D02*
X1484Y1585D01*
X1516Y1585D02*
X1529Y1585D01*
X1471Y1584D02*
X1483Y1584D01*
X1516Y1584D02*
X1529Y1584D01*
X1471Y1583D02*
X1483Y1583D01*
X1517Y1583D02*
X1529Y1583D01*
X1471Y1582D02*
X1482Y1582D01*
X1518Y1582D02*
X1529Y1582D01*
X1471Y1581D02*
X1482Y1581D01*
X1518Y1581D02*
X1529Y1581D01*
X1471Y1580D02*
X1481Y1580D01*
X1519Y1580D02*
X1529Y1580D01*
X1471Y1579D02*
X1481Y1579D01*
X1519Y1579D02*
X1529Y1579D01*
X1471Y1578D02*
X1481Y1578D01*
X1519Y1578D02*
X1529Y1578D01*
X1471Y1577D02*
X1480Y1577D01*
X1520Y1577D02*
X1529Y1577D01*
X1471Y1576D02*
X1480Y1576D01*
X1520Y1576D02*
X1529Y1576D01*
X1471Y1575D02*
X1480Y1575D01*
X1520Y1575D02*
X1529Y1575D01*
X1471Y1574D02*
X1480Y1574D01*
X1520Y1574D02*
X1529Y1574D01*
X1471Y1573D02*
X1480Y1573D01*
X1520Y1573D02*
X1529Y1573D01*
X1471Y1572D02*
X1480Y1572D01*
X1520Y1572D02*
X1529Y1572D01*
X1471Y1571D02*
X1480Y1571D01*
X1520Y1571D02*
X1529Y1571D01*
X1471Y1570D02*
X1480Y1570D01*
X1520Y1570D02*
X1529Y1570D01*
X1471Y1569D02*
X1480Y1569D01*
X1520Y1569D02*
X1529Y1569D01*
X1471Y1568D02*
X1480Y1568D01*
X1520Y1568D02*
X1529Y1568D01*
X1471Y1567D02*
X1481Y1567D01*
X1519Y1567D02*
X1529Y1567D01*
X1471Y1566D02*
X1481Y1566D01*
X1519Y1566D02*
X1529Y1566D01*
X1471Y1565D02*
X1481Y1565D01*
X1519Y1565D02*
X1529Y1565D01*
X1471Y1564D02*
X1482Y1564D01*
X1518Y1564D02*
X1529Y1564D01*
X1471Y1563D02*
X1482Y1563D01*
X1518Y1563D02*
X1529Y1563D01*
X1471Y1562D02*
X1483Y1562D01*
X1517Y1562D02*
X1529Y1562D01*
X1471Y1561D02*
X1484Y1561D01*
X1516Y1561D02*
X1529Y1561D01*
X1471Y1560D02*
X1484Y1560D01*
X1515Y1560D02*
X1529Y1560D01*
X1471Y1559D02*
X1485Y1559D01*
X1515Y1559D02*
X1529Y1559D01*
X1471Y1558D02*
X1486Y1558D01*
X1514Y1558D02*
X1529Y1558D01*
X1471Y1557D02*
X1487Y1557D01*
X1512Y1557D02*
X1529Y1557D01*
X1471Y1556D02*
X1489Y1556D01*
X1511Y1556D02*
X1529Y1556D01*
X1471Y1555D02*
X1491Y1555D01*
X1509Y1555D02*
X1529Y1555D01*
X1471Y1554D02*
X1493Y1554D01*
X1507Y1554D02*
X1529Y1554D01*
X1471Y1553D02*
X1498Y1553D01*
X1502Y1553D02*
X1529Y1553D01*
X1471Y1552D02*
X1529Y1552D01*
X1471Y1551D02*
X1529Y1551D01*
X1471Y1550D02*
X1529Y1550D01*
X1471Y1549D02*
X1529Y1549D01*
X1471Y1548D02*
X1529Y1548D01*
X1471Y1547D02*
X1529Y1547D01*
X1471Y1546D02*
X1529Y1546D01*
X1471Y1545D02*
X1529Y1545D01*
X1471Y1544D02*
X1529Y1544D01*
X1471Y1543D02*
X1529Y1543D01*
X1471Y1402D02*
X1529Y1402D01*
X1471Y1401D02*
X1529Y1401D01*
X1471Y1400D02*
X1529Y1400D01*
X1471Y1399D02*
X1529Y1399D01*
X1471Y1398D02*
X1529Y1398D01*
X1471Y1397D02*
X1529Y1397D01*
X1471Y1396D02*
X1529Y1396D01*
X1471Y1395D02*
X1529Y1395D01*
X1471Y1394D02*
X1529Y1394D01*
X1471Y1393D02*
X1529Y1393D01*
X1471Y1392D02*
X1495Y1392D01*
X1505Y1392D02*
X1529Y1392D01*
X1471Y1391D02*
X1492Y1391D01*
X1508Y1391D02*
X1529Y1391D01*
X1471Y1390D02*
X1490Y1390D01*
X1510Y1390D02*
X1529Y1390D01*
X1471Y1389D02*
X1488Y1389D01*
X1512Y1389D02*
X1529Y1389D01*
X1471Y1388D02*
X1487Y1388D01*
X1513Y1388D02*
X1529Y1388D01*
X1471Y1387D02*
X1486Y1387D01*
X1514Y1387D02*
X1529Y1387D01*
X1471Y1386D02*
X1485Y1386D01*
X1515Y1386D02*
X1529Y1386D01*
X1471Y1385D02*
X1484Y1385D01*
X1516Y1385D02*
X1529Y1385D01*
X1471Y1384D02*
X1483Y1384D01*
X1517Y1384D02*
X1529Y1384D01*
X1471Y1383D02*
X1483Y1383D01*
X1517Y1383D02*
X1529Y1383D01*
X1471Y1382D02*
X1482Y1382D01*
X1518Y1382D02*
X1529Y1382D01*
X1471Y1381D02*
X1482Y1381D01*
X1518Y1381D02*
X1529Y1381D01*
X1471Y1380D02*
X1481Y1380D01*
X1519Y1380D02*
X1529Y1380D01*
X1471Y1379D02*
X1481Y1379D01*
X1519Y1379D02*
X1529Y1379D01*
X1471Y1378D02*
X1481Y1378D01*
X1519Y1378D02*
X1529Y1378D01*
X1471Y1377D02*
X1480Y1377D01*
X1520Y1377D02*
X1529Y1377D01*
X1471Y1376D02*
X1480Y1376D01*
X1520Y1376D02*
X1529Y1376D01*
X1471Y1375D02*
X1480Y1375D01*
X1520Y1375D02*
X1529Y1375D01*
X1471Y1374D02*
X1480Y1374D01*
X1520Y1374D02*
X1529Y1374D01*
X1471Y1373D02*
X1480Y1373D01*
X1520Y1373D02*
X1529Y1373D01*
X1471Y1372D02*
X1480Y1372D01*
X1520Y1372D02*
X1529Y1372D01*
X1471Y1371D02*
X1480Y1371D01*
X1520Y1371D02*
X1529Y1371D01*
X1471Y1370D02*
X1480Y1370D01*
X1520Y1370D02*
X1529Y1370D01*
X1471Y1369D02*
X1480Y1369D01*
X1520Y1369D02*
X1529Y1369D01*
X1471Y1368D02*
X1480Y1368D01*
X1519Y1368D02*
X1529Y1368D01*
X1471Y1367D02*
X1481Y1367D01*
X1519Y1367D02*
X1529Y1367D01*
X1471Y1366D02*
X1481Y1366D01*
X1519Y1366D02*
X1529Y1366D01*
X1471Y1365D02*
X1481Y1365D01*
X1518Y1365D02*
X1529Y1365D01*
X1471Y1364D02*
X1482Y1364D01*
X1518Y1364D02*
X1529Y1364D01*
X1471Y1363D02*
X1482Y1363D01*
X1517Y1363D02*
X1529Y1363D01*
X1471Y1362D02*
X1483Y1362D01*
X1517Y1362D02*
X1529Y1362D01*
X1471Y1361D02*
X1484Y1361D01*
X1516Y1361D02*
X1529Y1361D01*
X1471Y1360D02*
X1485Y1360D01*
X1515Y1360D02*
X1529Y1360D01*
X1471Y1359D02*
X1485Y1359D01*
X1514Y1359D02*
X1529Y1359D01*
X1471Y1358D02*
X1487Y1358D01*
X1513Y1358D02*
X1529Y1358D01*
X1471Y1357D02*
X1488Y1357D01*
X1512Y1357D02*
X1529Y1357D01*
X1471Y1356D02*
X1489Y1356D01*
X1511Y1356D02*
X1529Y1356D01*
X1471Y1355D02*
X1491Y1355D01*
X1509Y1355D02*
X1529Y1355D01*
X1471Y1354D02*
X1494Y1354D01*
X1506Y1354D02*
X1529Y1354D01*
X1471Y1353D02*
X1529Y1353D01*
X1471Y1352D02*
X1529Y1352D01*
X1471Y1351D02*
X1529Y1351D01*
X1471Y1350D02*
X1529Y1350D01*
X1471Y1349D02*
X1529Y1349D01*
X1471Y1348D02*
X1529Y1348D01*
X1471Y1347D02*
X1529Y1347D01*
X1471Y1346D02*
X1529Y1346D01*
X1471Y1345D02*
X1529Y1345D01*
X1471Y1344D02*
X1529Y1344D01*
D02*
G04 End of Copper0*
M02*