G04 MADE WITH FRITZING*
G04 WWW.FRITZING.ORG*
G04 SINGLE SIDED*
G04 HOLES NOT PLATED*
G04 CONTOUR ON CENTER OF CONTOUR VECTOR*
%ASAXBY*%
%FSLAX23Y23*%
%MOIN*%
%OFA0B0*%
%SFA1.0B1.0*%
%ADD10C,0.088740*%
%ADD11C,0.087778*%
%ADD12C,0.074000*%
%ADD13C,0.069370*%
%ADD14C,0.097268*%
%ADD15C,0.097253*%
%ADD16C,0.072992*%
%ADD17R,0.074000X0.074000*%
%ADD18R,0.072992X0.072992*%
%ADD19R,0.001000X0.001000*%
%LNMASK0*%
G90*
G70*
G54D10*
X70Y1702D03*
X70Y72D03*
X2470Y82D03*
G54D11*
X1000Y172D03*
X1100Y172D03*
X1200Y172D03*
X1300Y172D03*
X1400Y172D03*
X1500Y172D03*
X1600Y172D03*
X1700Y172D03*
X1700Y1072D03*
X1600Y1072D03*
X1500Y1072D03*
X1400Y1072D03*
X1300Y1072D03*
X1200Y1072D03*
X1100Y1072D03*
X1000Y1072D03*
G54D12*
X240Y1182D03*
X240Y1082D03*
X240Y982D03*
X240Y882D03*
X240Y782D03*
X240Y682D03*
X240Y582D03*
X240Y482D03*
G54D13*
X1500Y1372D03*
X1500Y1572D03*
G54D14*
X2400Y1052D03*
G54D15*
X2400Y1248D03*
G54D14*
X2400Y1452D03*
G54D15*
X2400Y1648D03*
G54D16*
X1200Y1472D03*
X1200Y1570D03*
X900Y1472D03*
X900Y1570D03*
G54D17*
X240Y1182D03*
G54D18*
X1200Y1472D03*
X900Y1472D03*
G54D19*
X1466Y1607D02*
X1534Y1607D01*
X1466Y1606D02*
X1534Y1606D01*
X1466Y1605D02*
X1534Y1605D01*
X1466Y1604D02*
X1534Y1604D01*
X1466Y1603D02*
X1534Y1603D01*
X1466Y1602D02*
X1534Y1602D01*
X1466Y1601D02*
X1534Y1601D01*
X1466Y1600D02*
X1534Y1600D01*
X1466Y1599D02*
X1534Y1599D01*
X1466Y1598D02*
X1534Y1598D01*
X1466Y1597D02*
X1534Y1597D01*
X1466Y1596D02*
X1534Y1596D01*
X1466Y1595D02*
X1534Y1595D01*
X1466Y1594D02*
X1534Y1594D01*
X1466Y1593D02*
X1534Y1593D01*
X1466Y1592D02*
X1534Y1592D01*
X1466Y1591D02*
X1534Y1591D01*
X1466Y1590D02*
X1534Y1590D01*
X1466Y1589D02*
X1534Y1589D01*
X1466Y1588D02*
X1534Y1588D01*
X1466Y1587D02*
X1497Y1587D01*
X1503Y1587D02*
X1534Y1587D01*
X1466Y1586D02*
X1493Y1586D01*
X1506Y1586D02*
X1534Y1586D01*
X1466Y1585D02*
X1492Y1585D01*
X1508Y1585D02*
X1534Y1585D01*
X1466Y1584D02*
X1490Y1584D01*
X1510Y1584D02*
X1534Y1584D01*
X1466Y1583D02*
X1489Y1583D01*
X1511Y1583D02*
X1534Y1583D01*
X1466Y1582D02*
X1488Y1582D01*
X1512Y1582D02*
X1534Y1582D01*
X1466Y1581D02*
X1487Y1581D01*
X1512Y1581D02*
X1534Y1581D01*
X1466Y1580D02*
X1487Y1580D01*
X1513Y1580D02*
X1534Y1580D01*
X1466Y1579D02*
X1486Y1579D01*
X1514Y1579D02*
X1534Y1579D01*
X1466Y1578D02*
X1486Y1578D01*
X1514Y1578D02*
X1534Y1578D01*
X1466Y1577D02*
X1485Y1577D01*
X1514Y1577D02*
X1534Y1577D01*
X1466Y1576D02*
X1485Y1576D01*
X1515Y1576D02*
X1534Y1576D01*
X1466Y1575D02*
X1485Y1575D01*
X1515Y1575D02*
X1534Y1575D01*
X1466Y1574D02*
X1485Y1574D01*
X1515Y1574D02*
X1534Y1574D01*
X1466Y1573D02*
X1485Y1573D01*
X1515Y1573D02*
X1534Y1573D01*
X1466Y1572D02*
X1485Y1572D01*
X1515Y1572D02*
X1534Y1572D01*
X1466Y1571D02*
X1485Y1571D01*
X1515Y1571D02*
X1534Y1571D01*
X1466Y1570D02*
X1485Y1570D01*
X1515Y1570D02*
X1534Y1570D01*
X1466Y1569D02*
X1485Y1569D01*
X1515Y1569D02*
X1534Y1569D01*
X1466Y1568D02*
X1485Y1568D01*
X1514Y1568D02*
X1534Y1568D01*
X1466Y1567D02*
X1486Y1567D01*
X1514Y1567D02*
X1534Y1567D01*
X1466Y1566D02*
X1486Y1566D01*
X1514Y1566D02*
X1534Y1566D01*
X1466Y1565D02*
X1487Y1565D01*
X1513Y1565D02*
X1534Y1565D01*
X1466Y1564D02*
X1488Y1564D01*
X1512Y1564D02*
X1534Y1564D01*
X1466Y1563D02*
X1488Y1563D01*
X1512Y1563D02*
X1534Y1563D01*
X1466Y1562D02*
X1489Y1562D01*
X1511Y1562D02*
X1534Y1562D01*
X1466Y1561D02*
X1490Y1561D01*
X1509Y1561D02*
X1534Y1561D01*
X1466Y1560D02*
X1492Y1560D01*
X1508Y1560D02*
X1534Y1560D01*
X1466Y1559D02*
X1494Y1559D01*
X1506Y1559D02*
X1534Y1559D01*
X1466Y1558D02*
X1498Y1558D01*
X1502Y1558D02*
X1534Y1558D01*
X1466Y1557D02*
X1534Y1557D01*
X1466Y1556D02*
X1534Y1556D01*
X1466Y1555D02*
X1534Y1555D01*
X1466Y1554D02*
X1534Y1554D01*
X1466Y1553D02*
X1534Y1553D01*
X1466Y1552D02*
X1534Y1552D01*
X1466Y1551D02*
X1534Y1551D01*
X1466Y1550D02*
X1534Y1550D01*
X1466Y1549D02*
X1534Y1549D01*
X1466Y1548D02*
X1534Y1548D01*
X1466Y1547D02*
X1534Y1547D01*
X1466Y1546D02*
X1534Y1546D01*
X1466Y1545D02*
X1534Y1545D01*
X1466Y1544D02*
X1534Y1544D01*
X1466Y1543D02*
X1534Y1543D01*
X1466Y1542D02*
X1534Y1542D01*
X1466Y1541D02*
X1534Y1541D01*
X1466Y1540D02*
X1534Y1540D01*
X1466Y1539D02*
X1534Y1539D01*
X1466Y1538D02*
X1534Y1538D01*
X1466Y1407D02*
X1534Y1407D01*
X1466Y1406D02*
X1534Y1406D01*
X1466Y1405D02*
X1534Y1405D01*
X1466Y1404D02*
X1534Y1404D01*
X1466Y1403D02*
X1534Y1403D01*
X1466Y1402D02*
X1534Y1402D01*
X1466Y1401D02*
X1534Y1401D01*
X1466Y1400D02*
X1534Y1400D01*
X1466Y1399D02*
X1534Y1399D01*
X1466Y1398D02*
X1534Y1398D01*
X1466Y1397D02*
X1534Y1397D01*
X1466Y1396D02*
X1534Y1396D01*
X1466Y1395D02*
X1534Y1395D01*
X1466Y1394D02*
X1534Y1394D01*
X1466Y1393D02*
X1534Y1393D01*
X1466Y1392D02*
X1534Y1392D01*
X1466Y1391D02*
X1534Y1391D01*
X1466Y1390D02*
X1534Y1390D01*
X1466Y1389D02*
X1534Y1389D01*
X1466Y1388D02*
X1534Y1388D01*
X1466Y1387D02*
X1496Y1387D01*
X1504Y1387D02*
X1534Y1387D01*
X1466Y1386D02*
X1493Y1386D01*
X1507Y1386D02*
X1534Y1386D01*
X1466Y1385D02*
X1491Y1385D01*
X1509Y1385D02*
X1534Y1385D01*
X1466Y1384D02*
X1490Y1384D01*
X1510Y1384D02*
X1534Y1384D01*
X1466Y1383D02*
X1489Y1383D01*
X1511Y1383D02*
X1534Y1383D01*
X1466Y1382D02*
X1488Y1382D01*
X1512Y1382D02*
X1534Y1382D01*
X1466Y1381D02*
X1487Y1381D01*
X1513Y1381D02*
X1534Y1381D01*
X1466Y1380D02*
X1487Y1380D01*
X1513Y1380D02*
X1534Y1380D01*
X1466Y1379D02*
X1486Y1379D01*
X1514Y1379D02*
X1534Y1379D01*
X1466Y1378D02*
X1486Y1378D01*
X1514Y1378D02*
X1534Y1378D01*
X1466Y1377D02*
X1485Y1377D01*
X1515Y1377D02*
X1534Y1377D01*
X1466Y1376D02*
X1485Y1376D01*
X1515Y1376D02*
X1534Y1376D01*
X1466Y1375D02*
X1485Y1375D01*
X1515Y1375D02*
X1534Y1375D01*
X1466Y1374D02*
X1485Y1374D01*
X1515Y1374D02*
X1534Y1374D01*
X1466Y1373D02*
X1485Y1373D01*
X1515Y1373D02*
X1534Y1373D01*
X1466Y1372D02*
X1485Y1372D01*
X1515Y1372D02*
X1534Y1372D01*
X1466Y1371D02*
X1485Y1371D01*
X1515Y1371D02*
X1534Y1371D01*
X1466Y1370D02*
X1485Y1370D01*
X1515Y1370D02*
X1534Y1370D01*
X1466Y1369D02*
X1485Y1369D01*
X1515Y1369D02*
X1534Y1369D01*
X1466Y1368D02*
X1486Y1368D01*
X1514Y1368D02*
X1534Y1368D01*
X1466Y1367D02*
X1486Y1367D01*
X1514Y1367D02*
X1534Y1367D01*
X1466Y1366D02*
X1486Y1366D01*
X1513Y1366D02*
X1534Y1366D01*
X1466Y1365D02*
X1487Y1365D01*
X1513Y1365D02*
X1534Y1365D01*
X1466Y1364D02*
X1488Y1364D01*
X1512Y1364D02*
X1534Y1364D01*
X1466Y1363D02*
X1489Y1363D01*
X1511Y1363D02*
X1534Y1363D01*
X1466Y1362D02*
X1490Y1362D01*
X1510Y1362D02*
X1534Y1362D01*
X1466Y1361D02*
X1491Y1361D01*
X1509Y1361D02*
X1534Y1361D01*
X1466Y1360D02*
X1492Y1360D01*
X1508Y1360D02*
X1534Y1360D01*
X1466Y1359D02*
X1494Y1359D01*
X1505Y1359D02*
X1534Y1359D01*
X1466Y1358D02*
X1534Y1358D01*
X1466Y1357D02*
X1534Y1357D01*
X1466Y1356D02*
X1534Y1356D01*
X1466Y1355D02*
X1534Y1355D01*
X1466Y1354D02*
X1534Y1354D01*
X1466Y1353D02*
X1534Y1353D01*
X1466Y1352D02*
X1534Y1352D01*
X1466Y1351D02*
X1534Y1351D01*
X1466Y1350D02*
X1534Y1350D01*
X1466Y1349D02*
X1534Y1349D01*
X1466Y1348D02*
X1534Y1348D01*
X1466Y1347D02*
X1534Y1347D01*
X1466Y1346D02*
X1534Y1346D01*
X1466Y1345D02*
X1534Y1345D01*
X1466Y1344D02*
X1534Y1344D01*
X1466Y1343D02*
X1534Y1343D01*
X1466Y1342D02*
X1534Y1342D01*
X1466Y1341D02*
X1534Y1341D01*
X1466Y1340D02*
X1534Y1340D01*
X1466Y1339D02*
X1534Y1339D01*
D02*
G04 End of Mask0*
M02*