; NON-PLATED HOLES START AT T1
; THROUGH (PLATED) HOLES START AT T100
M48
INCH
T1C0.078740
T100C0.036111
T101C0.039370
T102C0.031497
T103C0.045031
T104C0.040000
T105C0.045046
%
T1
X000704Y000716
X000704Y017016
X024704Y000816
T100
X015004Y001716
X014004Y010716
X015004Y010716
X016004Y010716
X016004Y001716
X017004Y010716
X010004Y010716
X012004Y001716
X010004Y001716
X011004Y010716
X014004Y001716
X012004Y010716
X017004Y001716
X013004Y010716
X013004Y001716
X011004Y001716
T101
X015004Y013718
X015004Y015716
T102
X009004Y014716
X012004Y014716
X009004Y015700
X012004Y015700
T103
X024004Y016484
X024004Y012484
T104
X002404Y007816
X002404Y004816
X002404Y010816
X002404Y008816
X002404Y006816
X002404Y005816
X002404Y011816
X002404Y009816
T105
X024004Y010516
X024004Y014516
T00
M30
